<?xml version="1.0" encoding="UTF-8" standalone="no"?>
<svg
   xmlns:dc="http://purl.org/dc/elements/1.1/"
   xmlns:cc="http://creativecommons.org/ns#"
   xmlns:rdf="http://www.w3.org/1999/02/22-rdf-syntax-ns#"
   xmlns:svg="http://www.w3.org/2000/svg"
   xmlns="http://www.w3.org/2000/svg"
   xmlns:sodipodi="http://sodipodi.sourceforge.net/DTD/sodipodi-0.dtd"
   xmlns:inkscape="http://www.inkscape.org/namespaces/inkscape"
   viewBox="0 0 476 471"
   version="1.1"
   id="svg6"
   sodipodi:docname="card_astronaut.svg"
   width="476"
   height="471"
   inkscape:version="0.92.4 (5da689c313, 2019-01-14)">
  <metadata
     id="metadata12">
    <rdf:RDF>
      <cc:Work
         rdf:about="">
        <dc:format>image/svg+xml</dc:format>
        <dc:type
           rdf:resource="http://purl.org/dc/dcmitype/StillImage" />
        <dc:title></dc:title>
      </cc:Work>
    </rdf:RDF>
  </metadata>
  <defs
     id="defs10" />
  <sodipodi:namedview
     pagecolor="#ffffff"
     bordercolor="#666666"
     borderopacity="1"
     objecttolerance="10"
     gridtolerance="10"
     guidetolerance="10"
     inkscape:pageopacity="0"
     inkscape:pageshadow="2"
     inkscape:window-width="2000"
     inkscape:window-height="1046"
     id="namedview8"
     showgrid="false"
     inkscape:zoom="0.921875"
     inkscape:cx="377.79258"
     inkscape:cy="421.37627"
     inkscape:window-x="2391"
     inkscape:window-y="-9"
     inkscape:window-maximized="1"
     inkscape:current-layer="svg6" />
  <g
     class=""
     style="fill:#0000fd;fill-opacity:1"
     id="g4"
     transform="translate(-18,-23)">
    <path
       d="m 256,23 c -16.076,0 -32.375,3.73 -48.178,10.24 -2.126,6.525 -3.877,14.76 -4.877,23.754 -1.31,11.79 -1.73,24.706 -1.87,36.819 33.864,-3.704 75.986,-3.704 109.85,0 -0.14,-12.113 -0.56,-25.03 -1.87,-36.82 -1,-8.992 -2.75,-17.228 -4.877,-23.753 C 288.375,26.73 272.076,23 256,23 Z m 100.564,19.332 c 9.315,7.054 18.107,14.878 26.282,23.234 1.53,-6.65 4.69,-12.696 9.03,-17.695 z m -170.03,1.49 c -34.675,20.22 -65.047,52.714 -82.552,86.334 -33.08,63.536 -39.69,156.956 -0.53,214.8 C 132.786,388.278 200.276,405 256,405 c 55.725,0 123.215,-16.72 152.547,-60.045 39.162,-57.843 32.55,-151.263 -0.53,-214.8 -17.504,-33.62 -47.876,-66.112 -82.55,-86.333 0.578,3.65 1.057,7.388 1.478,11.184 1.522,13.694 1.912,28.197 2.014,41.267 C 347.664,99.427 362,104 368,110 c 32,32 75.537,134.695 16,224 -37.654,56.48 -218.346,56.48 -256,0 -59.537,-89.305 -16,-192 16,-224 6,-6 20.335,-10.573 39.04,-13.727 0.103,-13.07 0.493,-27.573 2.015,-41.267 0.42,-3.796 0.9,-7.534 1.478,-11.184 z M 64,48 c -8.837,0 -16,7.163 -16,16 a 16,16 0 0 0 7,13.227 V 145.5 L 73,132 V 77.21 A 16,16 0 0 0 80,64 C 80,55.163 72.837,48 64,48 Z m 358.81,3.68 c -12.81,0 -23,10.19 -23,23 0,12.81 10.19,23 23,23 12.81,0 23,-10.19 23,-23 0,-12.81 -10.19,-23 -23,-23 z m 25.272,55.205 c -6.98,5.497 -15.758,8.795 -25.27,8.795 -0.745,0 -1.48,-0.027 -2.214,-0.067 a 216.57,216.57 0 0 1 2.38,4.37 l 29.852,22.39 z m -238.822,2.5 c -17.257,0.09 -37.256,3.757 -53.233,16.12 -26.634,20.608 -43.034,114.763 -33.49,146.763 16.584,-61.767 31.993,-124.02 107.92,-161.274 a 133.445,133.445 0 0 0 -21.197,-1.61 z M 74.205,153.595 40.15,179.138 25.67,251.546 63.85,297.36 C 52.903,250.837 58.074,198.637 74.205,153.596 Z m 363.59,0 c 16.13,45.042 21.302,97.242 10.355,143.764 l 38.18,-45.815 -14.48,-72.408 z M 106.645,375.93 c -3.583,1.17 -7.252,3.406 -10.282,6.435 -4.136,4.136 -6.68,9.43 -7.164,14.104 0.21,0.364 0.603,1.157 1.73,2.162 2.453,2.188 6.693,5.17 12.127,8.358 10.867,6.38 26.55,13.757 44.205,20.623 21.177,8.237 45.35,15.704 67.738,20.38 v -27.61 c -39.47,-5.12 -79.897,-18.325 -108.355,-44.452 z m 298.71,0 C 376.897,402.055 336.47,415.26 297,420.38 v 27.61 c 22.387,-4.676 46.56,-12.143 67.738,-20.38 17.655,-6.865 33.338,-14.243 44.205,-20.622 5.434,-3.19 9.674,-6.17 12.127,-8.36 1.127,-1.004 1.52,-1.797 1.73,-2.16 -0.482,-4.675 -3.027,-9.97 -7.163,-14.105 -3.03,-3.03 -6.7,-5.264 -10.282,-6.435 z M 77.322,410.602 18,450.15 V 494 h 37 v -18 h 18 v 18 h 366 v -18 h 18 v 18 h 37 v -43.85 l -59.322,-39.548 c -0.537,0.488 -1.08,0.97 -1.623,1.457 -3.922,3.497 -8.932,6.89 -14.998,10.452 -12.133,7.12 -28.45,14.743 -46.795,21.877 C 334.572,458.656 290.25,471 256,471 c -34.25,0 -78.572,-12.343 -115.262,-26.61 -18.345,-7.135 -34.662,-14.757 -46.795,-21.878 -6.066,-3.56 -11.076,-6.955 -14.998,-10.453 -0.543,-0.487 -1.086,-0.97 -1.623,-1.458 z M 233,422.184 v 28.992 c 8.236,1.162 16.012,1.824 23,1.824 6.988,0 14.764,-0.662 23,-1.824 v -28.992 c -7.82,0.555 -15.523,0.816 -23,0.816 -7.477,0 -15.18,-0.26 -23,-0.816 z"
       id="path2"
       style="fill:#0000fd;fill-opacity:1"
       inkscape:connector-curvature="0" />
  </g>
</svg>
